<svg width="500" height="480" xmlns="http://www.w3.org/2000/svg">
 <desc>Created with Fabric.js 3.6.3</desc>

 <g>
  <title>background</title>
  <rect x="-1" y="-1" width="502" height="482" id="canvas_background" fill="none"/>
 </g>
 <g>
  <title>Layer 1</title>
  <g transform="matrix(0.3333725759876855,0,0,1.9692780337941629,-227.98521144619355,552.012297159975) " id="background-logo">
   <rect x="-389.49064" y="-185.86115" width="650" height="520" stroke=" none" id="svg_1"/>
  </g>
  <g transform="matrix(1.7907132944723825,0,0,1.7907132944723825,722.7855819981804,348.91033992854875) " id="logo-logo">
   <g id="svg_3">
    <g transform="matrix(0.2394936688426411,0,0,-0.2394936688426411,0,0) " id="svg_4">
     <path  d="m-713.89171,689.27145l-46.83,-134.72l117.67,-214.81l-234.31,34.29l77.2,222.04l55.49,159.58l-20.55,44.3l-742.75,-136.37l-167.27,-560.88l28.35,-28.53l227.4,-15.27l47.95,-3.22l-26.4,84.76l-176.11,11.83l113.89,381.86l108.35,-152.87l14.18,-213.53l8.83,-132.87l11.62,-174.995l-175.22,148.995l-96,6.45l303.47,-305.36l613.65,29.336l141.77,552.414l-184.38,397.57zm-552.69,-341.97l229.22,-33.54l27.69,79.63l-278.08,40.69l-116.48,164.35l542.98,74.09l-82.22,-236.46l-55.6,-159.93l0,0l-55.2,-158.77l-197.92,13.29l-14.39,216.65zm36.66,-551.822l-16.73,251.812l203.86,-13.69l237.76,-217.81l-424.89,-20.312zm503.2,60.863l-250.76,229.719l72.44,208.33l280.22,-41.01l-101.9,-397.039" stroke-linecap="round" stroke=" none" id="svg_5" fill="#ba277f"/>
    </g>
   </g>
  </g>
 </g>
</svg>